<?xml version="1.0" encoding="utf-8"?>
<svg xmlns="http://www.w3.org/2000/svg"
	xmlns:xlink="http://www.w3.org/1999/xlink"
	width="5px" height="8px" viewBox="0 0 5 8">
<filter filterUnits="objectBoundingBox" x="0.00" y="0.00" width="100.00" height="100.00" id="filter0">
<feFlood flood-color="rgb(209,209,209)" result="coFloodOut1"/>
<feComposite in="coFloodOut1" in2="SourceAlpha" operator="in" result="coOverlay1"/>
<feBlend in="coOverlay1" in2="SourceGraphic" mode="normal" result="colorOverlay1"/>
</filter>
<path fillRule="evenodd" d="M 0.95 7.81C 0.95 7.81 4.79 4.35 4.79 4.35 5 4.16 5 3.84 4.79 3.65 4.79 3.65 4.76 3.64 4.76 3.64 4.76 3.64 0.95 0.18 0.95 0.18 0.74-0.01 0.39-0.01 0.17 0.18 0.17 0.18 0.17 0.18 0.17 0.18 0.07 0.27 0 0.4 0 0.54 0 0.54 0 7.46 0 7.46 0 7.6 0.07 7.72 0.18 7.81 0.18 7.81 0.17 7.81 0.17 7.81 0.39 8.01 0.74 8.01 0.95 7.81Z" fill="rgb(0,0,0)" filter="url(#filter0)"/></svg>