<?xml version="1.0" encoding="utf-8"?>
<svg xmlns="http://www.w3.org/2000/svg"
	xmlns:xlink="http://www.w3.org/1999/xlink"
	width="50px" height="60px" viewBox="0 0 50 60">
<style type="text/css"><![CDATA[
.style0 {
  font-size: 24px;
  font-family: "Montserrat-Light";
  fill: rgb(255,255,255);
}
.style1 {
  font-size: 12px;
  font-family: "Roboto-Regular";
  fill: rgb(255,255,255);
}
]]></style>
<filter filterUnits="objectBoundingBox" x="0.00" y="0.00" width="100.00" height="100.00" id="filter0">
<feFlood flood-color="rgb(54,54,54)" result="coFloodOut1"/>
<feComposite in="coFloodOut1" in2="SourceAlpha" operator="in" result="coOverlay1"/>
<feBlend in="coOverlay1" in2="SourceGraphic" mode="normal" result="colorOverlay1"/>
</filter>
<filter filterUnits="objectBoundingBox" x="0.00" y="0.00" width="100.00" height="100.00" id="filter1">
<feFlood flood-color="rgb(36,36,36)" result="coFloodOut1"/>
<feComposite in="coFloodOut1" in2="SourceAlpha" operator="in" result="coOverlay1"/>
<feBlend in="coOverlay1" in2="SourceGraphic" mode="normal" result="colorOverlay1"/>
</filter>
<g><g><path fillRule="evenodd" d="M 3-0C 3-0 47-0 47-0 48.66-0 50 1.34 50 3 50 3 50 35 50 35 50 35-0 35-0 35-0 35-0 3-0 3-0 1.34 1.34-0 3-0Z" fill="rgb(145,153,169)" filter="url(#filter0)"/><text transform="translate(26.00,26.00)" class="style0"><tspan x="-12.31 0.00" fill="rgb(255,255,255)">30</tspan></text></g><g><path fillRule="evenodd" d="M-0 35C-0 35 50 35 50 35 50 35 50 57 50 57 50 58.66 48.66 60 47 60 47 60 3 60 3 60 1.34 60-0 58.66-0 57-0 57-0 35-0 35Z" fill="rgb(145,153,169)" filter="url(#filter1)"/><text transform="translate(26.00,51.00)" class="style1"><tspan x="-10.62 -4.70 1.31 8.14" fill="rgb(255,255,255)">Sep.</tspan></text></g></g></svg>